<?xml version="1.0" encoding="UTF-8"?>
<svg version="1.1" xmlns="http://www.w3.org/2000/svg" width="100" height="100">
<path d="M0 0 C2.41629808 0.04220608 4.83368334 0.04112879 7.25 0 C13.77959184 -0.11020408 13.77959184 -0.11020408 16 1 C17.67778499 5.13551327 16.10942052 7.87177767 14.49609375 11.78125 C13.783347 14.02537505 13.783347 14.02537505 14.8125 16.1953125 C15.92038177 18.05192144 15.92038177 18.05192144 17.5625 19.375 C20.71360939 22.93712366 20.08049354 27.70351044 19.8125 32.1875 C19.60358239 35.35041537 19.45541377 36.54946218 17.17578125 38.8046875 C13.84178118 40.63629257 11.57407465 39.99279851 8 39 C6.5625 36.9375 6.5625 36.9375 6 35 C2.42672205 36.19647746 2.42672205 36.19647746 -0.375 38.59375 C-2 40 -2 40 -4.26171875 40.07421875 C-5.06222656 39.94660156 -5.86273438 39.81898437 -6.6875 39.6875 C-7.49574219 39.56761719 -8.30398437 39.44773438 -9.13671875 39.32421875 C-9.75160156 39.21722656 -10.36648437 39.11023438 -11 39 C-10.99476318 39.55985596 -10.98952637 40.11971191 -10.98413086 40.6965332 C-10.96333309 43.23517737 -10.95033096 45.77380359 -10.9375 48.3125 C-10.92912109 49.19357422 -10.92074219 50.07464844 -10.91210938 50.98242188 C-10.90888672 51.82998047 -10.90566406 52.67753906 -10.90234375 53.55078125 C-10.89710693 54.33106689 -10.89187012 55.11135254 -10.88647461 55.9152832 C-11 58 -11 58 -12 61 C-14.37975201 62.21954873 -16.64335448 63.22846714 -19.125 64.1875 C-19.77726562 64.46013672 -20.42953125 64.73277344 -21.1015625 65.01367188 C-28.5903369 67.97797841 -34.53928882 67.18629847 -41.9375 64.5 C-42.62134766 64.26152344 -43.30519531 64.02304688 -44.00976562 63.77734375 C-45.67658097 63.19454118 -47.33880316 62.59862949 -49 62 C-49.50904763 58.02193721 -50.00557427 54.04240442 -50.5 50.0625 C-50.64308594 48.94552734 -50.78617188 47.82855469 -50.93359375 46.67773438 C-51.707386 40.39527823 -52.16108701 34.32937716 -52 28 C-49.69 27.01 -47.38 26.02 -45 25 C-45.33 24.67 -45.66 24.34 -46 24 C-46.26828688 20.44519888 -46.38335163 17.8305952 -44.875 14.5625 C-43 13 -43 13 -40.125 12.375 C-35.59236658 13.28152668 -34.56767401 15.22400881 -32 19 C-32 19.66 -32 20.32 -32 21 C-31.01 21 -30.02 21 -29 21 C-28.731875 20.236875 -28.46375 19.47375 -28.1875 18.6875 C-27.02271111 16.05139882 -26.34002598 14.64668495 -24 13 C-21.16995526 12.57549329 -19.67607284 12.56538175 -17.25 14.125 C-15.49973609 16.75039586 -15.1917929 18.86738265 -15 22 C-15.9375 24.375 -15.9375 24.375 -17 26 C-16.01 26 -15.02 26 -14 26 C-13.773125 25.29875 -13.54625 24.5975 -13.3125 23.875 C-12 21 -12 21 -9.25 18.125 C-8.5075 17.09375 -7.765 16.0625 -7 15 C-7.49688643 11.34421001 -7.49688643 11.34421001 -9 8 C-9.92012197 5.31631092 -10.18454449 4.49685056 -9.1875 1.8125 C-6.66577035 -2.03645579 -4.0797843 -0.68954101 0 0 Z " fill="#505050" transform="translate(64,26)"/>
<path d="M0 0 C2.41629808 0.04220608 4.83368334 0.04112879 7.25 0 C13.77959184 -0.11020408 13.77959184 -0.11020408 16 1 C17.67778499 5.13551327 16.10942052 7.87177767 14.49609375 11.78125 C13.783347 14.02537505 13.783347 14.02537505 14.8125 16.1953125 C15.92038177 18.05192144 15.92038177 18.05192144 17.5625 19.375 C20.71360939 22.93712366 20.08049354 27.70351044 19.8125 32.1875 C19.60358239 35.35041537 19.45541377 36.54946218 17.17578125 38.8046875 C13.84178118 40.63629257 11.57407465 39.99279851 8 39 C6.5625 36.9375 6.5625 36.9375 6 35 C2.42672205 36.19647746 2.42672205 36.19647746 -0.375 38.59375 C-2 40 -2 40 -4.26171875 40.07421875 C-5.06222656 39.94660156 -5.86273438 39.81898437 -6.6875 39.6875 C-8.110625 39.460625 -9.53375 39.23375 -11 39 C-10.67 35.37 -10.34 31.74 -10 28 C-10.99 27.67 -11.98 27.34 -13 27 C-13.3125 24.8125 -13.3125 24.8125 -13 22 C-10.5625 19.3125 -10.5625 19.3125 -8 17 C-6.40094293 13.80188585 -7.9746665 11.30385238 -9 8 C-9.2475 7.278125 -9.495 6.55625 -9.75 5.8125 C-10.09474068 3.31313005 -9.36118932 2.07760475 -8 0 C-5.13018438 -1.43490781 -3.14450542 -0.5314657 0 0 Z " fill="#C77B7B" transform="translate(64,26)"/>
<path d="M0 0 C3.10502372 0.15923199 4.55992289 0.57509797 6.8125 2.75 C8.20765469 5.39345099 8.31885108 7.05062755 8 10 C7.67 10.33 7.34 10.66 7 11 C7.66 11.33 8.32 11.66 9 12 C9.33 10.68 9.66 9.36 10 8 C10.99 8.33 11.98 8.66 13 9 C12.625 10.9375 12.625 10.9375 12 13 C11.01 13.495 11.01 13.495 10 14 C11.19625 13.773125 12.3925 13.54625 13.625 13.3125 C18.3381895 12.41861923 18.99636223 13.49818112 24 16 C24 26.23 24 36.46 24 47 C22.515 47.495 22.515 47.495 21 48 C20.505 36.12 20.505 36.12 20 24 C18.35 24.66 16.7 25.32 15 26 C14.01 26 13.02 26 12 26 C12 23.69 12 21.38 12 19 C15.96 18.505 15.96 18.505 20 18 C19.34 17.34 18.68 16.68 18 16 C17.484375 16.33 16.96875 16.66 16.4375 17 C13.14662695 18.35010176 10.52848592 18.25203471 7 18 C5.68 17.34 4.36 16.68 3 16 C2.01 19.3 1.02 22.6 0 26 C-0.99 25.01 -1.98 24.02 -3 23 C-6.10839021 22.2730774 -6.10839021 22.2730774 -9 22 C-9 19.69 -9 17.38 -9 15 C-5.17010894 13.19769832 -2.21878192 12.80377759 2 13 C1.175 12.4225 0.35 11.845 -0.5 11.25 C-1.325 10.5075 -2.15 9.765 -3 9 C-3 7.68 -3 6.36 -3 5 C-2.01 5 -1.02 5 0 5 C0.33 5.33 0.66 5.66 1 6 C1.33 5.67 1.66 5.34 2 5 C0.68 4.01 -0.64 3.02 -2 2 C-1.34 1.34 -0.68 0.68 0 0 Z " fill="#B0B0B0" transform="translate(22,40)"/>
<path d="M0 0 C0.73089844 0.14953125 1.46179687 0.2990625 2.21484375 0.453125 C5.14476067 1.02842425 7.59125192 0.93182881 10.5625 0.75 C15.6211547 0.71586603 15.6211547 0.71586603 18.75 3.0625 C20.37464291 6.88041083 20.10253041 9.03089053 19 13 C17.75 14.9375 17.75 14.9375 16 16 C13.3125 16.1875 13.3125 16.1875 11 16 C11.7115625 15.1028125 11.7115625 15.1028125 12.4375 14.1875 C14.16465744 11.99617076 14.16465744 11.99617076 15 9 C11.7 8.67 8.4 8.34 5 8 C6.26974972 12.41522109 6.26974972 12.41522109 9 16 C8.01 17.98 7.02 19.96 6 22 C6.99 22 7.98 22 9 22 C9.33 22.66 9.66 23.32 10 24 C10.309375 23.21625 10.61875 22.4325 10.9375 21.625 C12 19 12 19 13 17 C15.75 16.125 15.75 16.125 19 16 C21.8125 17.5625 21.8125 17.5625 24 20 C24.8125 23.25 24.8125 23.25 25 26 C24.01 26 23.02 26 22 26 C21.67 25.67 21.34 25.34 21 25 C16.96839809 24.73706944 15.44107266 24.70595156 12 27 C8.375 26.625 8.375 26.625 5 26 C4.67 26 4.34 26 4 26 C2.66431979 25.67619874 1.33076989 25.34342449 0 25 C0.55728913 21.65626525 1.35173889 18.96687001 3 16 C2.34 15.01 1.68 14.02 1 13 C0.8046875 10.73828125 0.8046875 10.73828125 0.875 8.3125 C0.89304688 7.50425781 0.91109375 6.69601563 0.9296875 5.86328125 C0.95289063 5.24839844 0.97609375 4.63351563 1 4 C0.34 4.66 -0.32 5.32 -1 6 C-1.042721 4.33388095 -1.04063832 2.66617115 -1 1 C-0.67 0.67 -0.34 0.34 0 0 Z " fill="#FCF8F8" transform="translate(57,27)"/>
<path d="M0 0 C2.61384721 1.68033035 2.97788495 2.92004558 3.8125 5.9375 C4.00613718 9.10024068 3.70401547 10.39385869 2 13 C2.99 13 3.98 13 5 13 C5.33 12.34 5.66 11.68 6 11 C6 12.32 6 13.64 6 15 C6.66 15.33 7.32 15.66 8 16 C8 17.98 8 19.96 8 22 C6.02 22.33 4.04 22.66 2 23 C3.65 23.33 5.3 23.66 7 24 C6.67 31.26 6.34 38.52 6 46 C4.02 46.495 4.02 46.495 2 47 C1.34 37.1 0.68 27.2 0 17 C-2.31 16.34 -4.62 15.68 -7 15 C-7 15.33 -7 15.66 -7 16 C-8.98 16 -10.96 16 -13 16 C-13.33 15.34 -13.66 14.68 -14 14 C-12.02 13.67 -10.04 13.34 -8 13 C-8.33 12.34 -8.66 11.68 -9 11 C-9.57168784 4.82577132 -9.57168784 4.82577132 -7.3125 1.5625 C-4.54994945 -0.30408821 -3.26764255 -0.58649994 0 0 Z " fill="#9B9B9B" transform="translate(45,39)"/>
<path d="M0 0 C2.41629808 0.04220608 4.83368334 0.04112879 7.25 0 C13.77959184 -0.11020408 13.77959184 -0.11020408 16 1 C17.67778499 5.13551327 16.10942052 7.87177767 14.49609375 11.78125 C13.783347 14.02537505 13.783347 14.02537505 14.8125 16.1953125 C15.92038177 18.05192144 15.92038177 18.05192144 17.5625 19.375 C20.71360939 22.93712366 20.08049354 27.70351044 19.8125 32.1875 C19.60339971 35.3531811 19.45610953 36.54973802 17.171875 38.8046875 C13.83409969 40.64166456 11.58808506 39.97856865 8 39 C6.3125 37 6.3125 37 5 35 C2.90584196 34.20376178 2.90584196 34.20376178 1 34 C1.33 33.01 1.66 32.02 2 31 C2 31.66 2 32.32 2 33 C2.99 33 3.98 33 5 33 C5.33 31.68 5.66 30.36 6 29 C7 31 7 31 7 34 C7.99 33.505 7.99 33.505 9 33 C9.33 34.32 9.66 35.64 10 37 C12.41645782 37.16687448 12.41645782 37.16687448 15 37 C15.66 36.34 16.32 35.68 17 35 C16.98617135 32.94285168 16.98617135 32.94285168 16 31 C14.0162233 29.71563266 14.0162233 29.71563266 12 29 C13.65 28.34 15.3 27.68 17 27 C16.66132538 22.51315799 16.66132538 22.51315799 13.9375 19.125 C13.298125 18.75375 12.65875 18.3825 12 18 C10.02 18.99 10.02 18.99 8 20 C8 19.34 8 18.68 8 18 C5.84720127 19.8850244 5.84720127 19.8850244 5 22.5625 C4 25 4 25 2 26 C2 25.01 2 24.02 2 23 C1.01 23 0.02 23 -1 23 C-0.79375 22.38125 -0.5875 21.7625 -0.375 21.125 C-0.25125 20.42375 -0.1275 19.7225 0 19 C-0.66 18.34 -1.32 17.68 -2 17 C-1.34 16.67 -0.68 16.34 0 16 C-0.66 15.34 -1.32 14.68 -2 14 C-2.125 11.375 -2.125 11.375 -2 9 C4.625 8.875 4.625 8.875 8 10 C7.125 14.875 7.125 14.875 6 16 C8.57547398 15.65660347 9.68894113 15.39993284 11.3125 13.3125 C12.23189697 10.21998291 11.80776639 8.09643784 11 5 C9.1371051 2.69939466 9.1371051 2.69939466 6.1796875 2.8046875 C5.08914062 2.82789063 3.99859375 2.85109375 2.875 2.875 C1.23144531 2.90207031 1.23144531 2.90207031 -0.4453125 2.9296875 C-1.28835937 2.95289063 -2.13140625 2.97609375 -3 3 C-3 2.34 -3 1.68 -3 1 C-4.98 1.99 -4.98 1.99 -7 3 C-6.01 4.485 -6.01 4.485 -5 6 C-4.8046875 8.48046875 -4.8046875 8.48046875 -4.875 11.1875 C-4.89304687 12.08855469 -4.91109375 12.98960938 -4.9296875 13.91796875 C-4.96449219 14.94857422 -4.96449219 14.94857422 -5 16 C-4.34 16.33 -3.68 16.66 -3 17 C-4.65 17.33 -6.3 17.66 -8 18 C-7.67 17.01 -7.34 16.02 -7 15 C-7.79299055 11.88467998 -8.70763253 8.85273846 -9.75 5.8125 C-10.09474068 3.31313005 -9.36118932 2.07760475 -8 0 C-5.13018438 -1.43490781 -3.14450542 -0.5314657 0 0 Z " fill="#B85151" transform="translate(64,26)"/>
<path d="M0 0 C0.680625 0.07863281 1.36125 0.15726563 2.0625 0.23828125 C4 0.6875 4 0.6875 7 2.6875 C7.34057617 5.76025391 7.34057617 5.76025391 7.29296875 9.6640625 C7.28872391 10.34931 7.28447906 11.0345575 7.28010559 11.74057007 C7.26329753 13.93161129 7.22564405 16.12173632 7.1875 18.3125 C7.17245579 19.79686173 7.15876693 21.28123785 7.14648438 22.765625 C7.1133879 26.40654833 7.06159207 30.04693478 7 33.6875 C5.515 34.1825 5.515 34.1825 4 34.6875 C3.67 26.7675 3.34 18.8475 3 10.6875 C1.35 11.3475 -0.3 12.0075 -2 12.6875 C-2.99 12.6875 -3.98 12.6875 -5 12.6875 C-5 10.3775 -5 8.0675 -5 5.6875 C-2.36 5.3575 0.28 5.0275 3 4.6875 C2.34 4.0275 1.68 3.3675 1 2.6875 C0.484375 3.0175 -0.03125 3.3475 -0.5625 3.6875 C-3.8358849 5.03042714 -6.49639145 4.94702656 -10 4.6875 C-10.66 4.0275 -11.32 3.3675 -12 2.6875 C-4.09048947 -0.51905832 -4.09048947 -0.51905832 0 0 Z " fill="#FCFCFC" transform="translate(39,53.3125)"/>
<path d="M0 0 C2.64 0.33 5.28 0.66 8 1 C8 8.92 8 16.84 8 25 C5.69 24.67 3.38 24.34 1 24 C0.13036913 21.00293305 -0.11763099 18.35043474 -0.09765625 15.234375 C-0.09443359 14.34492187 -0.09121094 13.45546875 -0.08789062 12.5390625 C-0.07532227 11.15847656 -0.07532227 11.15847656 -0.0625 9.75 C-0.05798828 8.81414062 -0.05347656 7.87828125 -0.04882812 6.9140625 C-0.03706918 4.60930959 -0.02063426 2.30468773 0 0 Z " fill="#FDFDFD" transform="translate(25,66)"/>
<path d="M0 0 C-0.33 7.59 -0.66 15.18 -1 23 C-5 25 -5 25 -8 25 C-8 17.08 -8 9.16 -8 1 C-4 0 -4 0 0 0 Z " fill="#FAFAFA" transform="translate(42,66)"/>
<path d="M0 0 C4.53263342 0.90652668 5.55732599 2.84900881 8.125 6.625 C8.125 7.285 8.125 7.945 8.125 8.625 C9.115 8.625 10.105 8.625 11.125 8.625 C11.455 7.965 11.785 7.305 12.125 6.625 C12.455 8.935 12.785 11.245 13.125 13.625 C12.465 13.625 11.805 13.625 11.125 13.625 C10.795 12.635 10.465 11.645 10.125 10.625 C9.465 10.295 8.805 9.965 8.125 9.625 C7.795 10.945 7.465 12.265 7.125 13.625 C5.805 13.295 4.485 12.965 3.125 12.625 C3.785 12.295 4.445 11.965 5.125 11.625 C4.79539784 6.60964948 4.79539784 6.60964948 2.125 2.625 C-0.47780568 2.94541397 -0.47780568 2.94541397 -2.875 3.625 C-1.555 4.945 -0.235 6.265 1.125 7.625 C0.135 9.11 0.135 9.11 -0.875 10.625 C-1.205 9.305 -1.535 7.985 -1.875 6.625 C-2.865 6.625 -3.855 6.625 -4.875 6.625 C-3.60558503 10.53902949 -2.36332306 12.41572873 1.125 14.625 C-1.30887753 15.84193876 -3.29338846 15.94459896 -6 16.1875 C-7.36511719 16.31318359 -7.36511719 16.31318359 -8.7578125 16.44140625 C-9.45648438 16.50199219 -10.15515625 16.56257813 -10.875 16.625 C-10.875 18.935 -10.875 21.245 -10.875 23.625 C-8.565 23.625 -6.255 23.625 -3.875 23.625 C-2.84384721 26.89413624 -2.9111016 29.48541348 -3.3125 32.875 C-3.41433594 33.76703125 -3.51617187 34.6590625 -3.62109375 35.578125 C-3.70488281 36.25359375 -3.78867187 36.9290625 -3.875 37.625 C-4.205 37.625 -4.535 37.625 -4.875 37.625 C-5.205 34.655 -5.535 31.685 -5.875 28.625 C-6.535 28.625 -7.195 28.625 -7.875 28.625 C-7.875 35.225 -7.875 41.825 -7.875 48.625 C-8.205 48.625 -8.535 48.625 -8.875 48.625 C-9.38443785 44.81370032 -9.8808065 41.00080386 -10.375 37.1875 C-10.58962891 35.58358398 -10.58962891 35.58358398 -10.80859375 33.94726562 C-11.6007749 27.77956951 -12.03191598 21.8427959 -11.875 15.625 C-9.565 14.635 -7.255 13.645 -4.875 12.625 C-5.205 12.295 -5.535 11.965 -5.875 11.625 C-6.14328688 8.07019888 -6.25835163 5.4555952 -4.75 2.1875 C-2.875 0.625 -2.875 0.625 0 0 Z " fill="#373737" transform="translate(23.875,38.375)"/>
<path d="M0 0 C0.33 0.99 0.66 1.98 1 3 C1.99 2.67 2.98 2.34 4 2 C4.33 4.97 4.66 7.94 5 11 C5.33 11 5.66 11 6 11 C6.33 15.29 6.66 19.58 7 24 C7.66 24 8.32 24 9 24 C9 16.74 9 9.48 9 2 C9.33 2 9.66 2 10 2 C10.33 9.92 10.66 17.84 11 26 C13.31 26.33 15.62 26.66 18 27 C18 27.66 18 28.32 18 29 C16.4983547 28.73844293 14.9987567 28.46513114 13.5 28.1875 C12.6646875 28.03667969 11.829375 27.88585937 10.96875 27.73046875 C7.2186796 26.80775406 3.6160289 25.35601084 0 24 C0 16.08 0 8.16 0 0 Z " fill="#7C7C7C" transform="translate(15,64)"/>
<path d="M0 0 C2.0625 0.4375 2.0625 0.4375 4 1 C3.8453125 2.08667969 3.690625 3.17335937 3.53125 4.29296875 C2.74122772 10.60619257 2.61832488 16.95338813 2.39453125 23.30664062 C2.35714844 24.25345703 2.31976563 25.20027344 2.28125 26.17578125 C2.23581055 27.45835815 2.23581055 27.45835815 2.18945312 28.7668457 C2 31 2 31 1 34 C-1.4613715 35.20718817 -3.82064765 36.22605697 -6.375 37.1875 C-7.06078125 37.46013672 -7.7465625 37.73277344 -8.453125 38.01367188 C-11.43594216 39.17139955 -13.77442504 40 -17 40 C-17 39.34 -17 38.68 -17 38 C-14.69 37.34 -12.38 36.68 -10 36 C-10 31.38 -10 26.76 -10 22 C-9.67 22 -9.34 22 -9 22 C-8.67 26.29 -8.34 30.58 -8 35 C-7.01 34.505 -7.01 34.505 -6 34 C-5.5316735 31.41394668 -5.5316735 31.41394668 -5.375 28.4375 C-5.30023438 27.42558594 -5.22546875 26.41367188 -5.1484375 25.37109375 C-5.09945312 24.58863281 -5.05046875 23.80617188 -5 23 C-4.67 23 -4.34 23 -4 23 C-4 26.3 -4 29.6 -4 33 C-2.515 32.505 -2.515 32.505 -1 32 C-0.34 24.74 0.32 17.48 1 10 C-0.65 10.33 -2.3 10.66 -4 11 C-4 10.34 -4 9.68 -4 9 C-2.02 8.67 -0.04 8.34 2 8 C2 6.02 2 4.04 2 2 C1.01 1.67 0.02 1.34 -1 1 C-0.67 0.67 -0.34 0.34 0 0 Z " fill="#808080" transform="translate(51,53)"/>
<path d="M0 0 C0 0.99 0 1.98 0 3 C-0.99 3.66 -1.98 4.32 -3 5 C-2.67 5.33 -2.34 5.66 -2 6 C-1.67 5.34 -1.34 4.68 -1 4 C-0.01 4 0.98 4 2 4 C1.8125 6.375 1.8125 6.375 1 9 C-1.5 10.1875 -1.5 10.1875 -4 11 C-4.33 11.66 -4.66 12.32 -5 13 C-7.70879335 14.35439668 -10.00933268 14.06501451 -13 14 C-13.33 13.34 -13.66 12.68 -14 12 C-12.02 11.67 -10.04 11.34 -8 11 C-8.33 10.34 -8.66 9.68 -9 9 C-9.375 5.5625 -9.375 5.5625 -9 2 C-5.92176528 -0.73620864 -3.875152 -1.57876563 0 0 Z " fill="#737373" transform="translate(45,41)"/>
<path d="M0 0 C6.625 -0.125 6.625 -0.125 10 1 C9.25 5.75 9.25 5.75 7 8 C7.20625 8.78375 7.4125 9.5675 7.625 10.375 C7.74875 11.24125 7.8725 12.1075 8 13 C6.0625 15.3125 6.0625 15.3125 4 17 C4 16.01 4 15.02 4 14 C3.01 14 2.02 14 1 14 C1.20625 13.38125 1.4125 12.7625 1.625 12.125 C1.74875 11.42375 1.8725 10.7225 2 10 C1.34 9.34 0.68 8.68 0 8 C0.66 7.67 1.32 7.34 2 7 C1.34 6.34 0.68 5.68 0 5 C-0.125 2.375 -0.125 2.375 0 0 Z " fill="#EACDCD" transform="translate(62,35)"/>
<path d="M0 0 C2.9375 0.875 2.9375 0.875 4.375 2.6875 C5.02605484 5.21937994 4.90315191 6.46087023 3.9375 8.875 C1.9375 10.875 1.9375 10.875 -0.4375 11.25 C-3.0625 10.875 -3.0625 10.875 -5.4375 9.1875 C-7.0625 6.875 -7.0625 6.875 -7 4.25 C-5.53896867 0.54872064 -3.8899535 -0.15877361 0 0 Z " fill="#FCF7F7" transform="translate(77.0625,53.125)"/>
<path d="M0 0 C1.32 0 2.64 0 4 0 C3.67 7.26 3.34 14.52 3 22 C1.68 22.33 0.36 22.66 -1 23 C-1.12152487 15.26291674 -0.84800767 7.692641 0 0 Z " fill="#F7F7F7" transform="translate(48,63)"/>
<path d="M0 0 C0.33 0.99 0.66 1.98 1 3 C1.99 2.67 2.98 2.34 4 2 C4.33 8.93 4.66 15.86 5 23 C3.68 22.67 2.36 22.34 1 22 C-0.17402193 14.66236293 -0.09377123 7.41834582 0 0 Z " fill="#F8F8F8" transform="translate(15,64)"/>
<path d="M0 0 C1.91941394 3.20646283 2.22140277 5.35822526 1.875 9.0625 C1.81054688 9.91972656 1.74609375 10.77695312 1.6796875 11.66015625 C1 14 1 14 -0.83203125 15.8125 C-4.16809012 17.63981873 -6.41761677 16.97701361 -10 16 C-11.6875 14 -11.6875 14 -13 12 C-15.09415804 11.20376178 -15.09415804 11.20376178 -17 11 C-16.67 10.01 -16.34 9.02 -16 8 C-16 8.66 -16 9.32 -16 10 C-15.01 10 -14.02 10 -13 10 C-12.67 8.68 -12.34 7.36 -12 6 C-11 8 -11 8 -11 11 C-10.34 10.67 -9.68 10.34 -9 10 C-8.67 11.32 -8.34 12.64 -8 14 C-5.58354218 14.16687448 -5.58354218 14.16687448 -3 14 C-2.34 13.34 -1.68 12.68 -1 12 C-1.01382865 9.94285168 -1.01382865 9.94285168 -2 8 C-3.9837767 6.71563266 -3.9837767 6.71563266 -6 6 C-5.195625 5.7525 -4.39125 5.505 -3.5625 5.25 C-0.828919 4.27761141 -0.828919 4.27761141 -0.1875 1.875 C-0.0946875 0.946875 -0.0946875 0.946875 0 0 Z " fill="#C97C7C" transform="translate(82,49)"/>
<path d="M0 0 C0.33 0 0.66 0 1 0 C1 7.59 1 15.18 1 23 C0.34 23 -0.32 23 -1 23 C-4.09719631 16.80560738 -3.11132878 7.79105537 -3 1 C-2.01 1.495 -2.01 1.495 -1 2 C-0.67 1.34 -0.34 0.68 0 0 Z " fill="#F1F1F1" transform="translate(23,65)"/>
<path d="M0 0 C3.36949443 1.68474722 4.87944386 2.8191658 7 6 C6.625 8.6875 6.625 8.6875 6 11 C5.01 10.34 4.02 9.68 3 9 C0.37468476 8.83286431 0.37468476 8.83286431 -2 9 C-3.10102197 5.69693408 -2.95067299 4.28414305 -2 1 C-1.34 0.67 -0.68 0.34 0 0 Z " fill="#ECD2D2" transform="translate(75,43)"/>
<path d="M0 0 C0.66 0.33 1.32 0.66 2 1 C1.34 2.32 0.68 3.64 0 5 C0.99 5 1.98 5 3 5 C3.33 5.66 3.66 6.32 4 7 C4.309375 6.21625 4.61875 5.4325 4.9375 4.625 C6 2 6 2 7 0 C7.66 0 8.32 0 9 0 C9.74714785 2.68973228 10.1205535 4.51778598 9.4375 7.25 C8 9 8 9 5.0625 9.8125 C2 10 2 10 -1 9 C-1.625 5.625 -1.625 5.625 -2 2 C-1.34 1.34 -0.68 0.68 0 0 Z " fill="#FCF9F9" transform="translate(63,44)"/>
<path d="M0 0 C0.33 0 0.66 0 1 0 C1.33 2.31 1.66 4.62 2 7 C6.96551325 7.35606813 6.96551325 7.35606813 11.4375 5.5 C11.953125 5.005 12.46875 4.51 13 4 C13 4.66 13 5.32 13 6 C14.98 5.67 16.96 5.34 19 5 C19.33 5.99 19.66 6.98 20 8 C18.63875 7.938125 18.63875 7.938125 17.25 7.875 C14.09931762 7.99618009 12.54596259 8.2083967 10 10 C9.67 10.99 9.34 11.98 9 13 C8.01 13 7.02 13 6 13 C6 12.34 6 11.68 6 11 C4.824375 10.566875 4.824375 10.566875 3.625 10.125 C1 9 1 9 -1 7 C-0.67 6.67 -0.34 6.34 0 6 C0.04080783 4.00041636 0.04254356 1.99954746 0 0 Z " fill="#CF8A8A" transform="translate(60,46)"/>
<path d="M0 0 C-0.64669414 1.34313399 -1.31903578 2.67391178 -2 4 C-2.433125 4.9075 -2.86625 5.815 -3.3125 6.75 C-3.869375 7.4925 -4.42625 8.235 -5 9 C-7.6875 9.3125 -7.6875 9.3125 -10 9 C-10 6.69 -10 4.38 -10 2 C-6.49223216 0.39644899 -3.85645121 -0.22036864 0 0 Z " fill="#8D8D8D" transform="translate(23,53)"/>
<path d="M0 0 C1.2065625 0.0309375 1.2065625 0.0309375 2.4375 0.0625 C3.46865279 3.33163624 3.4013984 5.92291348 3 9.3125 C2.89816406 10.20453125 2.79632812 11.0965625 2.69140625 12.015625 C2.60761719 12.69109375 2.52382813 13.3665625 2.4375 14.0625 C2.1075 14.0625 1.7775 14.0625 1.4375 14.0625 C1.1075 11.0925 0.7775 8.1225 0.4375 5.0625 C-0.2225 5.0625 -0.8825 5.0625 -1.5625 5.0625 C-1.5625 11.6625 -1.5625 18.2625 -1.5625 25.0625 C-1.8925 25.0625 -2.2225 25.0625 -2.5625 25.0625 C-3.45416416 19.72666847 -3.71545667 14.59245603 -3.6875 9.1875 C-3.69136719 8.41664062 -3.69523438 7.64578125 -3.69921875 6.8515625 C-3.68731448 0.0899345 -3.68731448 0.0899345 0 0 Z " fill="#515151" transform="translate(17.5625,61.9375)"/>
<path d="M0 0 C2.625 0.25 2.625 0.25 4.375 1.375 C6.12526391 4.00039586 6.4332071 6.11738265 6.625 9.25 C5.6875 11.625 5.6875 11.625 4.625 13.25 C5.615 13.25 6.605 13.25 7.625 13.25 C7.955 12.59 8.285 11.93 8.625 11.25 C8.625 12.24 8.625 13.23 8.625 14.25 C5.325 14.58 2.025 14.91 -1.375 15.25 C-1.375 14.59 -1.375 13.93 -1.375 13.25 C-0.75625 13.023125 -0.1375 12.79625 0.5 12.5625 C3.23910209 10.87070165 3.67524472 9.25755839 4.625 6.25 C3.635 6.25 2.645 6.25 1.625 6.25 C1.295 7.24 0.965 8.23 0.625 9.25 C-0.035 8.59 -0.695 7.93 -1.375 7.25 C-0.055 5.93 1.265 4.61 2.625 3.25 C1.696875 3.0334375 1.696875 3.0334375 0.75 2.8125 C-1.375 2.25 -1.375 2.25 -3.375 1.25 C-2.375 0.25 -2.375 0.25 0 0 Z " fill="#615A5A" transform="translate(42.375,38.75)"/>
<path d="M0 0 C1 2 1 2 0.0625 5.125 C-0.288125 6.07375 -0.63875 7.0225 -1 8 C-3.31 8.33 -5.62 8.66 -8 9 C-8 6.69 -8 4.38 -8 2 C-5.36 1.34 -2.72 0.68 0 0 Z " fill="#EFEFEF" transform="translate(42,57)"/>
<path d="M0 0 C3.10502372 0.15923199 4.55992289 0.57509797 6.8125 2.75 C8.19608294 5.37152557 8.24360427 7.07674878 8 10 C5 10 5 10 2 9 C1.67 8.01 1.34 7.02 1 6 C1.33 5.67 1.66 5.34 2 5 C0.68 4.01 -0.64 3.02 -2 2 C-1.34 1.34 -0.68 0.68 0 0 Z " fill="#EDEDED" transform="translate(22,40)"/>
<path d="M0 0 C2.64 0.33 5.28 0.66 8 1 C8 3.31 8 5.62 8 8 C5.36 7.67 2.72 7.34 0 7 C0 4.69 0 2.38 0 0 Z " fill="#FBFBFB" transform="translate(25,58)"/>
<path d="M0 0 C0 0.99 0 1.98 0 3 C-1.96875 4.60546875 -1.96875 4.60546875 -4.5 6.1875 C-5.3353125 6.71730469 -6.170625 7.24710938 -7.03125 7.79296875 C-7.6809375 8.19128906 -8.330625 8.58960938 -9 9 C-9.3125 5.6875 -9.3125 5.6875 -9 2 C-5.92176528 -0.73620864 -3.875152 -1.57876563 0 0 Z " fill="#DFDFDF" transform="translate(45,41)"/>
<path d="M0 0 C1.99954746 -0.04254356 4.00041636 -0.04080783 6 0 C7 1 7 1 7.0625 4.0625 C7.041875 5.031875 7.02125 6.00125 7 7 C4.125 7.125 4.125 7.125 1 7 C0.34 6.34 -0.32 5.68 -1 5 C-0.625 2.375 -0.625 2.375 0 0 Z " fill="#FCF9F9" transform="translate(55,57)"/>
<path d="M0 0 C0.94875 0.04125 1.8975 0.0825 2.875 0.125 C2.875 3.93828762 2.87283921 6.96750652 0.3125 9.9375 C-0.161875 10.329375 -0.63625 10.72125 -1.125 11.125 C-1.125 10.135 -1.125 9.145 -1.125 8.125 C-2.115 8.125 -3.105 8.125 -4.125 8.125 C-3.91875 7.50625 -3.7125 6.8875 -3.5 6.25 C-3.37625 5.54875 -3.2525 4.8475 -3.125 4.125 C-3.785 3.465 -4.445 2.805 -5.125 2.125 C-3.125 0.125 -3.125 0.125 0 0 Z " fill="#D08D8D" transform="translate(67.125,40.875)"/>
<path d="M0 0 C0.721875 0.12375 1.44375 0.2475 2.1875 0.375 C1.8575 1.035 1.5275 1.695 1.1875 2.375 C0.5275 2.375 -0.1325 2.375 -0.8125 2.375 C-1.8025 5.675 -2.7925 8.975 -3.8125 12.375 C-6.8125 9.375 -6.8125 9.375 -7.8125 6.375 C-3.91006098 0.52134146 -3.91006098 0.52134146 0 0 Z " fill="#F6F6F6" transform="translate(25.8125,53.625)"/>
<path d="M0 0 C0.66 0 1.32 0 2 0 C2 0.66 2 1.32 2 2 C4.97 2.495 4.97 2.495 8 3 C7.21625 3.61875 6.4325 4.2375 5.625 4.875 C3.03162353 6.89858661 3.03162353 6.89858661 1 9 C-1.1640625 8.9765625 -1.1640625 8.9765625 -3.625 8.625 C-4.85089844 8.45871094 -4.85089844 8.45871094 -6.1015625 8.2890625 C-7.04128906 8.14597656 -7.04128906 8.14597656 -8 8 C-8 7.01 -8 6.02 -8 5 C-3.545 5.99 -3.545 5.99 1 7 C0.67 4.69 0.34 2.38 0 0 Z " fill="#D49696" transform="translate(61,57)"/>
<path d="M0 0 C3.35620271 1.38877354 5.07298728 2.91677965 7 6 C7 6.66 7 7.32 7 8 C7.99 8 8.98 8 10 8 C10.33 7.34 10.66 6.68 11 6 C11.33 8.31 11.66 10.62 12 13 C11.34 13 10.68 13 10 13 C9.67 12.01 9.34 11.02 9 10 C8.34 9.67 7.68 9.34 7 9 C6.67 10.32 6.34 11.64 6 13 C4.68 12.67 3.36 12.34 2 12 C2.66 11.67 3.32 11.34 4 11 C3.56179109 6.44262737 3.14958831 3.42346555 0 0 Z " fill="#464646" transform="translate(25,39)"/>
<path d="M0 0 C2.0625 0.4375 2.0625 0.4375 4 1 C3.855625 2.093125 3.71125 3.18625 3.5625 4.3125 C2.90689307 9.529258 2.45251777 14.76234747 2 20 C1.67 20 1.34 20 1 20 C1 16.7 1 13.4 1 10 C-0.65 10.33 -2.3 10.66 -4 11 C-4 10.34 -4 9.68 -4 9 C-2.02 8.67 -0.04 8.34 2 8 C2 6.02 2 4.04 2 2 C1.01 1.67 0.02 1.34 -1 1 C-0.67 0.67 -0.34 0.34 0 0 Z " fill="#4F4F4F" transform="translate(51,53)"/>
<path d="M0 0 C0 1.32 0 2.64 0 4 C-3.68379022 5.17881287 -7.15541573 5.21358801 -11 5 C-11.66 4.34 -12.32 3.68 -13 3 C-8.47774754 1.16665441 -4.91831697 -0.13292749 0 0 Z " fill="#EAEAEA" transform="translate(40,53)"/>
<path d="M0 0 C1.36125 0.37125 1.36125 0.37125 2.75 0.75 C2.13125 0.8325 1.5125 0.915 0.875 1 C-1.43437567 1.56258459 -1.43437567 1.56258459 -2.5 3.8125 C-2.7475 4.451875 -2.995 5.09125 -3.25 5.75 C-3.91 5.75 -4.57 5.75 -5.25 5.75 C-5.58 6.74 -5.91 7.73 -6.25 8.75 C-7 6.5 -7 6.5 -7.25 3.75 C-5.01399542 0.35127304 -4.11231748 -0.31633211 0 0 Z " fill="#F3E2E2" transform="translate(77.25,53.25)"/>
<path d="M0 0 C3.78786597 0.5260925 6.17152224 1.38103911 9 4 C9 4.66 9 5.32 9 6 C8.34 6 7.68 6 7 6 C7 5.34 7 4.68 7 4 C4.03 4 1.06 4 -2 4 C-1.34 2.68 -0.68 1.36 0 0 Z " fill="#E9CDCD" transform="translate(56,53)"/>
<path d="M0 0 C0 1.98 0 3.96 0 6 C-1.65 6.33 -3.3 6.66 -5 7 C-5 5.02 -5 3.04 -5 1 C-3 0 -3 0 0 0 Z " fill="#F9F4F4" transform="translate(53,55)"/>
<path d="M0 0 C2.97 0.495 2.97 0.495 6 1 C5.34 2.98 4.68 4.96 4 7 C2.68 7 1.36 7 0 7 C0 4.69 0 2.38 0 0 Z " fill="#F4F4F4" transform="translate(13,55)"/>
<path d="M0 0 C1 2 1 2 1 5 C1.66 4.67 2.32 4.34 3 4 C3.66 5.98 4.32 7.96 5 10 C3.125 9.6875 3.125 9.6875 1 9 C0.34 8.01 -0.32 7.02 -1 6 C-3.05925139 5.27617533 -3.05925139 5.27617533 -5 5 C-4.67 4.01 -4.34 3.02 -4 2 C-4 2.66 -4 3.32 -4 4 C-3.01 4 -2.02 4 -1 4 C-0.67 2.68 -0.34 1.36 0 0 Z " fill="#B75151" transform="translate(70,55)"/>
<path d="M0 0 C0.66 0.99 1.32 1.98 2 3 C1.01 3.33 0.02 3.66 -1 4 C-0.67 6.31 -0.34 8.62 0 11 C-1.32 10.67 -2.64 10.34 -4 10 C-3.43454163 6.04179141 -2.19097652 3.3340947 0 0 Z " fill="#F4E6E6" transform="translate(61,42)"/>
<path d="M0 0 C2.64 0 5.28 0 8 0 C7.67 0.99 7.34 1.98 7 3 C6.01 3 5.02 3 4 3 C4 4.65 4 6.3 4 8 C3.67 8 3.34 8 3 8 C2.87625 7.195625 2.7525 6.39125 2.625 5.5625 C2.315625 4.2940625 2.315625 4.2940625 2 3 C1.34 2.67 0.68 2.34 0 2 C0 1.34 0 0.68 0 0 Z " fill="#A8A8A8" transform="translate(43,53)"/>
<path d="M0 0 C1 2 1 2 0.0625 5.125 C-0.288125 6.07375 -0.63875 7.0225 -1 8 C-2.32 7.67 -3.64 7.34 -5 7 C-4.60196439 4.11424181 -4.20990931 3.17810487 -1.9375 1.25 C-1.298125 0.8375 -0.65875 0.425 0 0 Z " fill="#F5EAEA" transform="translate(56,46)"/>
<path d="M0 0 C0.99 0 1.98 0 3 0 C3.28875 0.969375 3.5775 1.93875 3.875 2.9375 C4.64214682 6.10664203 4.64214682 6.10664203 7 7 C2.25 6.25 2.25 6.25 0 4 C0 2.68 0 1.36 0 0 Z " fill="#EFEFEF" transform="translate(19,45)"/>
<path d="M0 0 C2.31 0 4.62 0 7 0 C7 1.32 7 2.64 7 4 C5.68 4.33 4.36 4.66 3 5 C3 4.01 3 3.02 3 2 C2.01 2.99 1.02 3.98 0 5 C0 3.35 0 1.7 0 0 Z " fill="#C87A7A" transform="translate(62,35)"/>
<path d="M0 0 C0.99 0 1.98 0 3 0 C2.6875 2.375 2.6875 2.375 2 5 C1.01 5.66 0.02 6.32 -1 7 C-1.99 6.67 -2.98 6.34 -4 6 C-3.01 5.67 -2.02 5.34 -1 5 C-0.67 3.35 -0.34 1.7 0 0 Z " fill="#ECECEC" transform="translate(44,45)"/>
<path d="M0 0 C4.455 0.99 4.455 0.99 9 2 C9 2.66 9 3.32 9 4 C6.03 3.67 3.06 3.34 0 3 C0 2.01 0 1.02 0 0 Z " fill="#D08D8D" transform="translate(53,62)"/>
<path d="M0 0 C1.32 0 2.64 0 4 0 C4 0.99 4 1.98 4 3 C2.125 4.0625 2.125 4.0625 0 5 C-0.66 4.67 -1.32 4.34 -2 4 C-1.34 2.68 -0.68 1.36 0 0 Z " fill="#A2A2A2" transform="translate(39,47)"/>
<path d="M0 0 C1.32 0.33 2.64 0.66 4 1 C3.67 2.65 3.34 4.3 3 6 C-0.875 4.25 -0.875 4.25 -2 2 C-1.34 2 -0.68 2 0 2 C0 1.34 0 0.68 0 0 Z " fill="#BD5D5D" transform="translate(75,26)"/>
<path d="M0 0 C0.33 0.66 0.66 1.32 1 2 C2.98 1.67 4.96 1.34 7 1 C7.33 1.99 7.66 2.98 8 4 C7.071875 3.979375 6.14375 3.95875 5.1875 3.9375 C1.97713989 3.84230396 1.97713989 3.84230396 -1 5 C-1.66 4.34 -2.32 3.68 -3 3 C-2.01 2.01 -1.02 1.02 0 0 Z " fill="#C47070" transform="translate(72,50)"/>
<path d="M0 0 C0.66 0.33 1.32 0.66 2 1 C1.67 5.29 1.34 9.58 1 14 C0.67 14 0.34 14 0 14 C-0.19456705 12.04235617 -0.38044247 10.08384679 -0.5625 8.125 C-0.66691406 7.03445312 -0.77132813 5.94390625 -0.87890625 4.8203125 C-1 2 -1 2 0 0 Z " fill="#4E4E4E" transform="translate(19,62)"/>
<path d="M0 0 C1.125 1.75 1.125 1.75 2 4 C1.125 6.25 1.125 6.25 0 8 C-0.33 7.34 -0.66 6.68 -1 6 C-1.66 5.67 -2.32 5.34 -3 5 C-2.34 5 -1.68 5 -1 5 C-1.33 3.68 -1.66 2.36 -2 1 C-1.34 0.67 -0.68 0.34 0 0 Z " fill="#D59696" transform="translate(79,27)"/>
<path d="M0 0 C1.32 0 2.64 0 4 0 C3.67 1.32 3.34 2.64 3 4 C2.34 4 1.68 4 1 4 C0.34 4.66 -0.32 5.32 -1 6 C-1.042721 4.33388095 -1.04063832 2.66617115 -1 1 C-0.67 0.67 -0.34 0.34 0 0 Z " fill="#DDAEAE" transform="translate(57,27)"/>
<path d="M0 0 C2.0625 0.4375 2.0625 0.4375 4 1 C3.67 3.64 3.34 6.28 3 9 C2.67 9 2.34 9 2 9 C2 6.69 2 4.38 2 2 C1.01 1.67 0.02 1.34 -1 1 C-0.67 0.67 -0.34 0.34 0 0 Z " fill="#7A2424" transform="translate(51,53)"/>
<path d="M0 0 C-0.66 1.32 -1.32 2.64 -2 4 C-2.99 4 -3.98 4 -5 4 C-5.33 2.68 -5.66 1.36 -6 0 C-2.25 -1.125 -2.25 -1.125 0 0 Z " fill="#FCF7F7" transform="translate(71,55)"/>
<path d="M0 0 C2.2477975 2.05233685 3.0022242 3.00667261 4 6 C2.35 6 0.7 6 -1 6 C-0.67 4.02 -0.34 2.04 0 0 Z " fill="#FCF8F8" transform="translate(74,46)"/>
</svg>
